<?xml version="1.0" encoding="utf-8"?>
<!-- Generator: Adobe Illustrator 16.0.0, SVG Export Plug-In . SVG Version: 6.00 Build 0)  -->
<!DOCTYPE svg PUBLIC "-//W3C//DTD SVG 1.1//EN" "http://www.w3.org/Graphics/SVG/1.1/DTD/svg11.dtd">
<svg version="1.1" id="Layer_1" xmlns="http://www.w3.org/2000/svg" xmlns:xlink="http://www.w3.org/1999/xlink" x="0px" y="0px"
	 width="500px" height="500px" viewBox="0 0 500 500" enable-background="new 0 0 500 500" xml:space="preserve">
<path fill="#FFFFFF" stroke="#1D1D1B" stroke-miterlimit="10" d="M347.671,205.612"/>
<linearGradient id="SVGID_1_" gradientUnits="userSpaceOnUse" x1="257.5801" y1="-29.7642" x2="412.6489" y2="396.2842">
	<stop  offset="0" style="stop-color:#FFFFFF"/>
	<stop  offset="0.0181" style="stop-color:#FAFAFA"/>
	<stop  offset="0.2947" style="stop-color:#ACACAB"/>
	<stop  offset="0.5407" style="stop-color:#6F6F6D"/>
	<stop  offset="0.7476" style="stop-color:#424241"/>
	<stop  offset="0.907" style="stop-color:#272725"/>
	<stop  offset="1" style="stop-color:#1D1D1B"/>
</linearGradient>
<linearGradient id="SVGID_2_" gradientUnits="userSpaceOnUse" x1="263.5947" y1="45.0449" x2="444.0107" y2="424.2244">
	<stop  offset="0" style="stop-color:#FFFFFF"/>
	<stop  offset="0.103" style="stop-color:#F9F9F9"/>
	<stop  offset="0.236" style="stop-color:#E9E9E9"/>
	<stop  offset="0.3856" style="stop-color:#CFCFCF"/>
	<stop  offset="0.5474" style="stop-color:#AAAAA9"/>
	<stop  offset="0.7189" style="stop-color:#7B7B7A"/>
	<stop  offset="0.8957" style="stop-color:#424240"/>
	<stop  offset="1" style="stop-color:#1D1D1B"/>
</linearGradient>
<path fill="url(#SVGID_1_)" stroke="url(#SVGID_2_)" stroke-miterlimit="10" d="M356.675,465.199
	c58.955-27.022,98.252-75.496,98.252-130.795c0-8.128-0.854-16.105-2.493-23.888c-0.347-1.705-0.741-3.396-1.176-5.078
	l-5.271-15.874L352.691,8.85l-38.949,12.953l64.116,192.937l33.508,100.824c0.515,1.45,1.002,2.919,1.46,4.389
	c3.536,11.332,5.412,23.149,5.412,35.292C418.237,398.357,394.65,437.318,356.675,465.199"/>
<path fill="none" stroke="#1D1D1B" stroke-miterlimit="10" d="M174.606,463.126"/>
<linearGradient id="SVGID_3_" gradientUnits="userSpaceOnUse" x1="360.5078" y1="29.2314" x2="492.7656" y2="29.2314">
	<stop  offset="0" style="stop-color:#FFFFFF"/>
	<stop  offset="0.1624" style="stop-color:#E0E0E0"/>
	<stop  offset="0.5191" style="stop-color:#919190"/>
	<stop  offset="1" style="stop-color:#1D1D1B"/>
</linearGradient>
<polygon fill="url(#SVGID_3_)" points="492.766,8.534 377.011,51.323 360.508,7.139 "/>
<linearGradient id="SVGID_4_" gradientUnits="userSpaceOnUse" x1="64.188" y1="-4.5508" x2="509.5541" y2="-4.5508" gradientTransform="matrix(1 0 0 -1 -56 355)">
	<stop  offset="0" style="stop-color:#FABB2C"/>
	<stop  offset="0.6204" style="stop-color:#EE7D00"/>
	<stop  offset="1" style="stop-color:#4B1F00"/>
</linearGradient>
<path fill="url(#SVGID_4_)" d="M371.51,280.225c-35.51-35.22-94.033-58.223-160.215-58.223
	c-108.31,0-196.106,61.579-196.106,137.551c0,47.205,33.901,88.848,85.563,113.632c9.199,4.409,18.987,8.295,29.227,11.583
	c24.772,7.926,52.31,12.332,81.317,12.332c56.325,0,107.095-16.66,142.871-43.329c33.012-24.601,53.236-57.748,53.236-94.219
	C407.401,330.012,394.118,302.636,371.51,280.225z M290.794,309.498l-32.26,38.645l-0.012,0.012l-66.586,79.801l-0.197,0.231
	l-0.208-0.879l-15.956-65.165v-0.012l-22.284-91.024h-0.012v-0.034l0.047,0.022h0.022l0.024,0.014l58.835,16.417l1.099,0.313
	c0.012,0,0.012,0,0.012,0l77.476,21.649V309.498L290.794,309.498z"/>
<path fill="#EDEDED" d="M290.794,309.486v0.012l-32.26,38.645l-0.012,0.012l-66.586,79.801l-0.197,0.231l-0.208-0.879
	l-15.956-65.165v-0.012l-22.284-91.023h-0.012v-0.035l0.047,0.022h0.022l0.024,0.014l58.835,16.418l1.099,0.313
	c0.012,0,0.012,0,0.012,0L290.794,309.486z"/>
</svg>
